# xmcd
#
# Track frame offsets: 
#        150
#        22537
#        50060
#        77112
#        106857
#        121550
#        148727
#        177872
#        189740
#        217262
#        237097
#        262467
#        291400
#
# Disc length: 4008 seconds
#
# Revision: 1
# Processed by: cddbd v1.5.2PL0 Copyright (c) Steve Scherf et al.
# Submitted via: ExactAudioCopy v0.99pb5
#
DISCID=c00fa60d
DTITLE=Ensemble Du Verre - facing, transparent
DYEAR=2004
DGENRE=Jazz
TTITLE0=Annalizer
TTITLE1=Space Mail
TTITLE2=Las vedersø
TTITLE3=Wegen Nor
TTITLE4=Traffic
TTITLE5=Russians Sorrow
TTITLE6=Syng Med
TTITLE7=Melancholie Transmitter Prolog
TTITLE8=Melancholie Transmitter
TTITLE9=Kind Of
TTITLE10=J-a-z-z
TTITLE11=Baltic Dub
TTITLE12=Russians Sorrow Epilog
EXTD=YEAR: 2004
EXTT0=
EXTT1=
EXTT2=
EXTT3=
EXTT4=
EXTT5=
EXTT6=
EXTT7=
EXTT8=
EXTT9=
EXTT10=
EXTT11=
EXTT12=
PLAYORDER=
